PathFileType	4	(X/Y/Z)	s01c0402.trc
DataRate	CameraRate	NumFrames	NumMarkers	Units	OrigDataRate	OrigDataStartFrame	OrigNumFrames
200	200	6	48	mm	200	250	2000
Frame#	Time	racr			lacr			c7			jug			rlel			rdr			llel			ldr			s2			lic			ric			lasi			rasi			rpsi			lpsi			rgt			lgt			rth1			rth2			rth3			rth4			rlfc			rsh1			rsh2			rsh3			rsh4			rlmal			rmmal			rcal			rtoe			rmt5			lth1			lth2			lth4			lth3			llfc			lsh1			lsh2			lsh3			lsh4			llmal			lmmal			lcal			ltoe			lmt5			SBIKE			LBIKE			RBIKE			
		X1	Y1	Z1	X2	Y2	Z2	X3	Y3	Z3	X4	Y4	Z4	X5	Y5	Z5	X6	Y6	Z6	X7	Y7	Z7	X8	Y8	Z8	X9	Y9	Z9	X10	Y10	Z10	X11	Y11	Z11	X12	Y12	Z12	X13	Y13	Z13	X14	Y14	Z14	X15	Y15	Z15	X16	Y16	Z16	X17	Y17	Z17	X18	Y18	Z18	X19	Y19	Z19	X20	Y20	Z20	X21	Y21	Z21	X22	Y22	Z22	X23	Y23	Z23	X24	Y24	Z24	X25	Y25	Z25	X26	Y26	Z26	X27	Y27	Z27	X28	Y28	Z28	X29	Y29	Z29	X30	Y30	Z30	X31	Y31	Z31	X32	Y32	Z32	X33	Y33	Z33	X34	Y34	Z34	X35	Y35	Z35	X36	Y36	Z36	X37	Y37	Z37	X38	Y38	Z38	X39	Y39	Z39	X40	Y40	Z40	X41	Y41	Z41	X42	Y42	Z42	X43	Y43	Z43	X44	Y44	Z44	X45	Y45	Z45	X46	Y46	Z46	X47	Y47	Z47	X48	Y48	Z48	
250	1.2500	459.509992	1355.227627	-124.818833	452.548818	1330.889506	-453.638421	414.369838	1410.343434	-284.031606	441.046072	1251.824886	-279.090193	533.694437	1092.365148	-21.388829	706.650082	896.655215	-73.116329	500.016663	1062.266979	-557.248827	694.205435	901.414115	-477.360033	-78.904565	1138.720493	-246.519916	101.783860	1159.893555	-432.829474	91.665929	1130.684078	-104.276241	77.122910	1109.357068	-409.270959	112.645003	1081.210850	-130.681889	-45.140598	1172.750734	-193.665978	-59.196798	1181.476509	-298.253116	31.617132	1007.190706	-74.424874	21.913102	1041.354464	-462.030724	108.583062	894.223716	-62.749097	162.131908	830.604177	-67.992345	215.271178	758.484016	-83.570174	205.122218	864.591840	-81.439952	254.202930	661.512735	-108.200097	181.291493	569.345023	-71.952410	140.116244	495.391557	-74.066742	87.822806	423.214600	-84.694610	177.604982	472.949621	-116.015716	11.156046	320.546347	-101.032944	52.802164	324.627135	-182.202781	-42.293136	301.275660	-156.045112	213.076577	209.950309	-143.873610	105.570031	210.958373	-73.882309	139.021533	977.095697	-475.239619	213.227236	962.767671	-473.529299	221.179371	1015.814120	-466.608445	296.935901	944.753992	-462.986577	401.276892	881.058226	-443.844287	326.449076	796.356894	-462.401170	295.202671	716.199437	-452.754030	262.422149	638.412940	-434.544690	349.911954	698.177049	-429.813127	220.183773	518.205410	-413.382432	250.749208	531.422848	-332.138519	169.857246	476.697993	-371.689463	446.870953	479.074588	-386.717526	342.815027	448.270680	-449.495872	-230.789580	890.311876	-256.011490	-22.944317	80.744669	-456.226570	-22.952502	80.457433	-56.093645	
251	1.2550	460.441672	1354.814391	-125.369319	453.630556	1330.066419	-453.214730	414.910622	1409.974615	-284.303607	441.954218	1251.473481	-279.201173	532.562820	1091.843654	-19.581597	706.162397	896.947510	-74.116205	498.474320	1060.934132	-558.811067	693.795030	902.163470	-477.739283	-78.948055	1139.062976	-246.410191	101.516801	1159.558562	-433.431273	91.522741	1130.922414	-104.105073	77.218451	1109.520862	-409.006127	112.393925	1081.324133	-130.312390	-45.132478	1173.154635	-193.554460	-58.526295	1182.117010	-298.100600	31.251544	1007.265503	-74.186269	21.983427	1041.572066	-461.832139	108.372729	894.503020	-62.423672	162.067336	830.870508	-67.702283	215.291952	758.814881	-83.278036	205.032401	864.924141	-81.252591	254.235268	662.098475	-108.233350	181.222241	570.034602	-72.015713	139.984513	496.144007	-74.148619	87.744782	423.938307	-84.804702	177.600377	473.637829	-116.034207	11.143135	321.078013	-101.139158	52.844458	324.907924	-182.273137	-42.142271	301.901232	-156.147725	212.998290	209.910637	-143.852796	105.477590	211.195732	-73.918068	139.951401	977.455691	-475.429682	213.306131	962.897873	-472.846648	221.292309	1015.930665	-465.567655	297.166662	944.873066	-462.153113	401.405890	881.360969	-443.251248	326.718783	796.410185	-462.050287	295.567818	716.247557	-452.560467	262.871413	638.367299	-434.409593	350.206567	698.247988	-429.537648	220.630950	518.143348	-413.521414	251.128013	531.389205	-332.222674	170.107721	476.815479	-371.827035	447.166483	478.665991	-386.780867	343.050770	447.996229	-449.636586	-230.808603	890.293095	-256.022309	-22.978801	80.604630	-456.289679	-22.969317	80.468434	-56.096093	
252	1.2600	461.430785	1354.456069	-125.857891	454.850775	1329.120582	-452.874733	415.469862	1409.448330	-284.486051	443.032905	1251.075290	-279.264574	531.220696	1091.197844	-17.486605	705.515625	897.431918	-74.736694	497.045539	1059.867558	-560.407506	693.351081	902.971819	-478.115007	-78.971340	1139.476683	-246.294481	101.266956	1159.288716	-434.088121	91.376184	1131.160587	-103.912588	77.349039	1109.683437	-408.728314	112.132214	1081.417478	-129.934422	-44.993422	1173.535268	-193.565318	-57.824159	1182.786487	-297.943190	30.860214	1007.404984	-73.917232	22.023220	1041.843942	-461.651207	108.214553	894.740813	-62.149858	162.076973	831.278585	-67.180570	215.278995	759.271624	-82.862398	204.781587	865.187825	-81.244956	254.176131	662.752280	-108.265617	181.100412	570.878864	-72.108694	139.870736	496.946540	-74.268292	87.673747	424.730590	-84.923952	177.557630	474.429925	-116.067890	11.191711	321.713720	-101.247921	52.878739	325.237611	-182.336239	-41.990811	302.503828	-156.294579	212.909839	209.874441	-143.851444	105.384497	211.475254	-73.961429	140.902926	977.817879	-475.613726	213.396441	963.033564	-472.107009	221.512418	1016.210438	-464.645771	297.166830	945.055130	-461.294035	401.367576	881.573637	-442.542360	326.996459	796.509763	-461.595077	296.019810	716.286178	-452.351877	263.399306	638.325101	-434.271861	350.609779	698.386008	-429.140917	221.104625	518.091813	-413.676486	251.546778	531.384969	-332.301609	170.417582	476.927131	-371.939679	447.425963	478.323815	-386.839538	343.371995	447.746306	-449.752738	-230.808954	890.259738	-256.019325	-22.955874	80.722340	-456.230398	-22.957577	80.453660	-56.093177	
253	1.2650	462.453078	1354.108985	-126.282135	456.123127	1328.050680	-452.615476	416.137520	1408.731040	-284.728536	444.098544	1250.356064	-279.403359	529.693577	1090.358378	-15.218857	705.094152	898.029866	-75.260219	495.573793	1058.753098	-561.994876	692.850729	903.858593	-478.440289	-78.955523	1139.987080	-246.113979	101.036776	1159.044558	-434.892161	91.190823	1131.437370	-103.690941	77.513004	1109.838972	-408.446430	111.818944	1081.473234	-129.491868	-44.865862	1174.037203	-193.516283	-57.089856	1183.485554	-297.780812	30.482436	1007.623137	-73.622979	22.046506	1042.169452	-461.478352	108.040597	895.087012	-61.805266	162.018358	831.749853	-66.771500	215.077460	759.801493	-82.497120	204.636016	865.678095	-80.897460	254.168598	663.378120	-108.362599	180.936618	571.744653	-72.216376	139.746951	497.812276	-74.416565	87.568059	425.587072	-85.028345	177.494231	475.308982	-116.103159	11.232117	322.346755	-101.272409	52.909064	325.611249	-182.395520	-41.826746	303.174947	-156.398906	212.849097	209.819225	-143.838116	105.273944	211.779140	-74.002038	141.875570	978.181419	-475.790570	213.500818	963.171454	-471.309925	222.740825	1016.541600	-463.030122	297.553467	945.162982	-460.211339	401.451834	881.848651	-441.601161	327.259527	796.647555	-461.158431	296.347697	716.331975	-451.974038	263.902753	638.302708	-434.124788	351.085921	698.460196	-428.214522	221.583773	518.052863	-413.849356	252.024214	531.415650	-332.392746	170.804631	477.042354	-372.119106	447.746580	477.972983	-386.887488	343.777431	447.413944	-449.825355	-230.808781	890.224728	-256.029495	-22.977502	80.610425	-456.300357	-22.984976	80.426775	-56.083611	
254	1.2700	463.575730	1353.660692	-126.720339	457.569021	1326.971325	-452.450834	416.967595	1407.883304	-285.144294	445.247363	1249.704947	-279.568226	527.954226	1089.186829	-12.943760	704.749034	898.350328	-75.709382	492.410891	1057.657248	-564.786087	692.254533	904.729955	-478.660642	-78.860258	1140.578078	-246.044518	100.835711	1158.803085	-435.772596	90.979149	1131.750462	-103.399961	77.708662	1109.981520	-408.169417	111.585763	1081.541952	-129.047008	-44.602616	1174.511807	-193.580458	-56.322860	1184.214576	-297.613390	29.988763	1007.845307	-73.342535	22.067305	1042.547954	-461.304024	107.822311	895.536369	-61.472483	161.968814	832.243933	-66.281223	215.125662	760.342436	-82.090832	204.484233	866.255862	-80.527362	254.193961	664.088878	-108.451345	180.840520	572.698543	-72.397613	139.637672	498.801318	-74.540937	87.480440	426.465171	-85.150810	177.500818	476.036151	-116.074839	11.301001	322.993091	-101.300633	52.949263	326.021342	-182.446661	-41.660149	303.853237	-156.547959	212.786178	209.791514	-143.820789	105.153066	212.115150	-74.066112	142.868763	978.545709	-475.959098	213.622248	963.308307	-470.455584	222.852261	1016.954572	-462.322562	297.461119	945.320060	-459.303638	401.508634	882.219519	-440.618678	327.475572	796.812447	-460.702628	296.785496	716.406818	-451.577915	264.426532	638.298617	-433.991205	351.334138	698.612182	-427.742477	222.057738	518.026134	-414.033520	252.504482	531.433378	-332.485411	171.145612	477.202573	-372.297244	448.093995	477.594468	-386.907119	344.027419	447.196148	-449.945567	-230.826867	890.208118	-256.062229	-22.981067	80.618602	-456.293364	-22.976494	80.445614	-56.096127	
255	1.2750	464.800809	1353.093818	-127.125713	459.075319	1325.695787	-452.402541	417.950700	1406.913458	-285.449627	446.528418	1248.680493	-279.750717	526.006350	1087.807706	-10.827055	704.430348	899.055577	-75.596001	493.239465	1057.093424	-565.446336	691.532771	905.577916	-478.743443	-78.757100	1141.304695	-245.898755	100.628134	1158.658984	-436.491719	90.800829	1132.072918	-103.074571	77.934343	1110.105503	-407.906219	111.416665	1081.585964	-128.619847	-44.173181	1174.955185	-193.744061	-55.522641	1184.973920	-297.440879	29.508250	1008.154443	-73.044042	22.099638	1042.978565	-461.118584	107.616999	896.072216	-61.088470	161.876172	832.790261	-65.841699	215.417539	760.937863	-81.693030	204.367529	866.897628	-80.179076	254.132477	664.894598	-108.534629	180.691751	573.601839	-72.591220	139.479528	499.646467	-74.713355	87.404986	427.333989	-85.257712	177.489707	476.960069	-116.087756	11.346630	323.643754	-101.358141	52.965901	326.486198	-182.493119	-41.500355	304.484792	-156.698226	212.723066	209.767457	-143.815352	105.071040	212.382898	-74.145496	143.881965	978.909968	-476.118159	213.764121	963.440759	-469.544489	222.810888	1017.404672	-461.441115	297.945285	945.493952	-457.889922	401.261918	882.581678	-439.513326	327.757039	796.945747	-460.085119	297.317455	716.548998	-451.256502	264.982920	638.301074	-433.830403	351.535030	698.784529	-427.133034	222.515941	518.007598	-414.216244	252.896601	531.426702	-332.564205	171.411185	477.313180	-372.426515	448.421211	477.157325	-387.038555	344.287776	446.917176	-450.080326	-230.841160	890.190461	-256.095940	-22.946085	80.716808	-456.251906	-22.987850	80.425293	-56.094952	
